<?xml version="1.0" encoding="UTF-8"?>
<svg id="Layer_1" xmlns="http://www.w3.org/2000/svg" version="1.1" viewBox="0 0 24 24">
  <!-- Generator: Adobe Illustrator 29.1.0, SVG Export Plug-In . SVG Version: 2.1.0 Build 142)  -->
  <defs>
    <style>
      .st0 {
        stroke-miterlimit: 10;
      }

      .st0, .st1 {
        fill: none;
        stroke: #b0ff12;
        stroke-width: 2px;
      }

      .st1 {
        stroke-linecap: round;
        stroke-linejoin: round;
      }

      .st1, .st2 {
        display: none;
      }

      .st3 {
        fill: #fff;
      }
    </style>
  </defs>
  <g class="st2">
    <g>
      <path d="M21,.7v22.6H3.1V.7s17.9,0,17.9,0ZM12.6,2c-.6-.5-.8-.3-1.3.1-.8.7-2.1,2.2-2.4,3.2s0,2.4,0,2.6.3.1.3.3c.2.7.5,1.4.8,2.1s.5.4.3,1.1-.4.8-.5.9c-.3.4-1.2.7-1.7.5s-.9-.7-.9-.8c-.1-.3,0-.5,0-.8s-.6-.8-1-.8c-.2,0-.7.4-.8.5s-.8,1.6-.8,1.7c-.3,1.5,0,4,.8,5.3s2.5,2.9,3.6,3.4.5,0,.8,0,.2.3.5.3c.4,0,3.4,0,3.8,0s1.6-.7,1.9-.8c1-.6,2.9-2.5,3.4-3.6s0-.5,0-.8.3-.2.3-.5,0-3.4,0-3.6-.3-.1-.3-.3c-.2-.5-.1-1-.5-1.6-1-1.6-1.8-1.9-3-3s-1.5-2-2.1-3.1-.6-1-.6-1.1c-.2-.5.2-.9-.4-1.5Z"/>
      <polygon class="st3" points="3.1 23.4 3 23.4 3 .6 21 .6 21 .7 3.1 .7 3.1 23.4"/>
      <path class="st3" d="M12.6,2c.6.6.3,1,.4,1.5s.5.8.6,1.1c.5,1.1,1.2,2.2,2.1,3.1s2,1.5,3,3,.3,1.1.5,1.6.3.2.3.3c0,.2,0,3.3,0,3.6s-.3.3-.3.5,0,.5,0,.8c-.4,1.1-2.3,3-3.4,3.6s-1.7.8-1.9.8c-.4,0-3.4,0-3.8,0s-.3-.3-.5-.3-.5,0-.8,0c-1.1-.4-3-2.3-3.6-3.4s-1.1-3.8-.8-5.3.7-1.6.8-1.7.6-.5.8-.5c.4,0,.9.5,1,.8s0,.5,0,.8.8.7.9.8c.5.2,1.4,0,1.7-.5s.4-.8.5-.9c.2-.7-.2-.7-.3-1.1-.3-.7-.5-1.4-.8-2.1s-.3-.2-.3-.3c0-.2,0-2.4,0-2.6.3-1,1.6-2.5,2.4-3.2s.7-.6,1.3-.1ZM12.9,6.9c-.1-.2-.2-.3-.3-.5-.2-.3-.9-2-1-2.1-.4-.1-.4.4-.5.6-.4.7-.9,1.3-.6,2.2s.5,1.1.7,1.7.3.2.3.3c.1.4.3.9.4,1.1.3,1.4-.2,2.8-1.4,3.7s-2,.7-2.9.5-1-.5-1.2-.7c-.4,0-.4,1.5-.3,1.7s.5,1.1.6,1.4c.4.9,2,2.5,2.9,2.8s.5,0,.8,0,.2.3.5.3c1.3.3,2.7-.1,3.8-.7s2.5-2,2.8-2.9,0-.5,0-.8.3-.2.3-.5,0-2.4,0-2.5-.2,0-.3-.1c0-.1,0-.4,0-.5-1-2.1-3.4-3.5-4.7-5.4Z"/>
      <path d="M12.9,6.9c1.2,1.9,3.7,3.3,4.7,5.4s0,.4,0,.5.2,0,.3.1c0,.1.1,2.2,0,2.5s-.3.3-.3.5,0,.5,0,.8c-.4.9-2,2.5-2.8,2.9s-2.5.9-3.8.7-.3-.3-.5-.3-.5,0-.8,0c-.9-.4-2.5-2-2.9-2.8s-.5-1.1-.6-1.4-.1-1.7.3-1.7c.2.2,1,.7,1.2.7.9.2,2.2,0,2.9-.5,1.2-.9,1.7-2.3,1.4-3.7s-.3-.6-.4-1.1-.3-.1-.3-.3c-.2-.6-.6-1.2-.7-1.7-.3-.9.3-1.5.6-2.2s0-.7.5-.6.8,1.8,1,2.1.2.3.3.5Z"/>
    </g>
  </g>
  <path class="st1" d="M12,9v4"/>
  <path class="st1" d="M12,16c-1.5,0-3,.5-3,2s2,2,3,2,3-.5,3-2-1.5-2-3-2Z"/>
  <path class="st1" d="M12,13c-1.5,0-3,.5-3,2"/>
  <path class="st1" d="M12,13c1.5,0,3,.5,3,2"/>
  <path class="st0" d="M12.1,2.6c.5.2.2,1.3,1.1,3.1.5.9,1,1.5,1.6,2.3,1.4,1.7,2,1.7,3,3,.4.6.9,1.4,1.1,2.5.4,2.1-.6,3.8-1,4.3-.3.6-1.6,2.7-4.3,3.4-3.7.9-6.5-2.1-6.7-2.2-.2-.3-2-2.2-1.8-4.7,0-1.3.6-2.7.9-2.7.1,0,.3.2.5.7.3.6.3.6.5.9.3.3.7.5,1,.6,1.1.2,2-.5,2.1-.6.7-.5,1.1-1.4,1-2.2,0-.2-.2-.6-.5-1.3-.5-1-.6-1.1-.8-1.7,0,0-.3-.8-.2-1.8,0-2,1.8-4,2.5-3.7Z"/>
</svg>